<svg width="273" height="273" viewBox="0 0 273 273" fill="none" xmlns="http://www.w3.org/2000/svg">
<path d="M238.042 67.7834C200.296 64.0428 162.322 62.1158 124.463 62.1158C102.019 62.1158 79.5749 63.2493 57.131 65.5164L34.007 67.7834M96.3511 56.3348L98.8449 41.4856C100.658 30.7171 102.019 22.669 121.175 22.669H150.874C170.03 22.669 171.504 31.1705 173.204 41.5989L175.698 56.3348M213.671 103.603L206.303 217.749C205.056 235.546 204.036 249.375 172.411 249.375H99.6383C68.0129 249.375 66.9927 235.546 65.7458 217.749L58.3779 103.603M117.095 187.031H154.841M107.686 141.689H164.363" stroke="#040404" stroke-width="17.0029" stroke-linecap="round" stroke-linejoin="round"/>
</svg>
