<svg width="155" height="155" viewBox="0 0 155 155" fill="none" xmlns="http://www.w3.org/2000/svg">
<path fill-rule="evenodd" clip-rule="evenodd" d="M142.083 6.45831C145.65 6.45831 148.542 9.34984 148.542 12.9166C148.542 16.4835 145.65 19.375 142.083 19.375H134.209L111.19 111.451C117.976 114.465 122.708 121.263 122.708 129.167C122.708 139.867 114.034 148.542 103.333 148.542C92.6328 148.542 83.9583 139.867 83.9583 129.167C83.9583 126.902 84.3471 124.728 85.0608 122.708H57.0226C57.7362 124.728 58.125 126.902 58.125 129.167C58.125 139.867 49.4508 148.542 38.75 148.542C28.0492 148.542 19.375 139.867 19.375 129.167C19.375 118.466 28.0492 109.792 38.75 109.792H98.2908L101.52 96.875H38.75C25.4187 96.875 17.4252 88.4527 12.9896 79.1527C8.6548 70.0645 7.14614 59.203 6.61979 51.3029C5.88741 40.3009 14.9814 32.2916 25.0512 32.2916H117.666L121.678 16.2422C123.116 10.4921 128.282 6.45831 134.209 6.45831H142.083ZM38.75 83.9583H104.749L114.437 45.2083H25.0512C21.4791 45.2083 19.3343 47.8352 19.508 50.4446C19.9989 57.8163 21.3732 66.7262 24.6476 73.592C27.8212 80.2454 32.1618 83.9583 38.75 83.9583ZM38.75 135.585C42.295 135.585 45.1683 132.712 45.1683 129.167C45.1683 125.622 42.295 122.748 38.75 122.748C35.205 122.748 32.3317 125.622 32.3317 129.167C32.3317 132.712 35.205 135.585 38.75 135.585ZM109.752 129.167C109.752 132.712 106.878 135.585 103.333 135.585C99.7885 135.585 96.9148 132.712 96.9148 129.167C96.9148 125.622 99.7885 122.748 103.333 122.748C106.878 122.748 109.752 125.622 109.752 129.167Z" fill="#040404"/>
</svg>
